<svg width="75" height="75" viewBox="0 0 75 75" fill="none" xmlns="http://www.w3.org/2000/svg">
<path d="M43.75 6.25H18.75C17.0924 6.25 15.5027 6.90848 14.3306 8.08058C13.1585 9.25268 12.5 10.8424 12.5 12.5V62.5C12.5 64.1576 13.1585 65.7473 14.3306 66.9194C15.5027 68.0915 17.0924 68.75 18.75 68.75H56.25C57.9076 68.75 59.4973 68.0915 60.6694 66.9194C61.8415 65.7473 62.5 64.1576 62.5 62.5V25L43.75 6.25Z" stroke="#4071F0" stroke-width="7" stroke-linecap="round" stroke-linejoin="round"/>
<path d="M43.75 6.25V25H62.5" stroke="#4071F0" stroke-width="7" stroke-linecap="round" stroke-linejoin="round"/>
<path d="M50 40.625H25" stroke="#4071F0" stroke-width="7" stroke-linecap="round" stroke-linejoin="round"/>
<path d="M50 53.125H25" stroke="#4071F0" stroke-width="7" stroke-linecap="round" stroke-linejoin="round"/>
<path d="M31.25 28.125H28.125H25" stroke="#4071F0" stroke-width="7" stroke-linecap="round" stroke-linejoin="round"/>
</svg>
