<svg width="79" height="50" viewBox="0 0 79 50" fill="none" xmlns="http://www.w3.org/2000/svg">
<path fill-rule="evenodd" clip-rule="evenodd" d="M0.772495 14.5894C0.774224 14.1928 0.854249 13.8004 1.00798 13.4348C1.16171 13.0691 1.38613 12.7374 1.66835 12.4587C1.95057 12.18 2.28504 11.9598 2.65257 11.8106C3.02011 11.6615 3.41347 11.5864 3.8101 11.5896L34.058 11.8251C35.7286 11.838 37.1614 13.1993 37.2586 14.8654L37.454 18.2179L47.5403 2.19175C47.7488 1.85648 48.0226 1.56663 48.3455 1.3395C48.6684 1.11236 49.0337 0.952585 49.4197 0.869708C49.8057 0.786831 50.2044 0.782546 50.5921 0.857112C50.9798 0.931678 51.3485 1.08357 51.6762 1.30372L77.0038 18.0773C77.6742 18.521 78.1413 19.2125 78.3026 20.0001C78.4638 20.7877 78.306 21.6071 77.8639 22.2785L61.3183 47.4209C60.3988 48.8178 58.5029 49.2355 57.0853 48.3547L37.454 36.157V46.1715C37.454 47.8421 36.0995 49.1959 34.4323 49.1959H3.64565C3.24914 49.1964 2.85644 49.1184 2.4902 48.9664C2.12395 48.8145 1.7914 48.5915 1.5117 48.3105C1.23201 48.0294 1.01071 47.6958 0.860544 47.3288C0.710382 46.9618 0.634331 46.5687 0.636776 46.1722L0.772495 14.5894ZM5.24404 17.1201L5.17258 44.268L33.1961 44.2956L33.1828 33.0374L30.932 31.4802C30.2481 31.0076 30.0341 30.0398 30.4568 29.3215L33.3231 24.4538L33.1469 16.9878L5.24404 17.1201ZM50.5178 6.30755L35.9694 28.911L59.0171 43.3977L73.2362 21.2673L50.5178 6.30755Z" fill="#4071F0"/>
<path d="M43.5302 30.5024C45.2006 30.5024 46.5546 29.1483 46.5546 27.478C46.5546 25.8077 45.2006 24.4536 43.5302 24.4536C41.8599 24.4536 40.5059 25.8077 40.5059 27.478C40.5059 29.1483 41.8599 30.5024 43.5302 30.5024Z" fill="#4071F0"/>
<path d="M53.7373 28.6122C55.4076 28.6122 56.7616 27.2582 56.7616 25.5879C56.7616 23.9175 55.4076 22.5635 53.7373 22.5635C52.067 22.5635 50.7129 23.9175 50.7129 25.5879C50.7129 27.2582 52.067 28.6122 53.7373 28.6122Z" fill="#4071F0"/>
<path d="M64.3232 26.7221C65.9935 26.7221 67.3476 25.368 67.3476 23.6977C67.3476 22.0274 65.9935 20.6733 64.3232 20.6733C62.6529 20.6733 61.2988 22.0274 61.2988 23.6977C61.2988 25.368 62.6529 26.7221 64.3232 26.7221Z" fill="#4071F0"/>
<path d="M10.2627 26.3437C11.933 26.3437 13.287 24.9896 13.287 23.3193C13.287 21.649 11.933 20.2949 10.2627 20.2949C8.59234 20.2949 7.23828 21.649 7.23828 23.3193C7.23828 24.9896 8.59234 26.3437 10.2627 26.3437Z" fill="#4071F0"/>
<path d="M18.957 34.2826C20.6273 34.2826 21.9814 32.9286 21.9814 31.2583C21.9814 29.5879 20.6273 28.2339 18.957 28.2339C17.2867 28.2339 15.9326 29.5879 15.9326 31.2583C15.9326 32.9286 17.2867 34.2826 18.957 34.2826Z" fill="#4071F0"/>
<path d="M27.2744 25.9657C28.9447 25.9657 30.2988 24.6117 30.2988 22.9414C30.2988 21.2711 28.9447 19.917 27.2744 19.917C25.6041 19.917 24.25 21.2711 24.25 22.9414C24.25 24.6117 25.6041 25.9657 27.2744 25.9657Z" fill="#4071F0"/>
<path d="M10.6406 41.8437C12.3109 41.8437 13.665 40.4896 13.665 38.8193C13.665 37.149 12.3109 35.7949 10.6406 35.7949C8.97027 35.7949 7.61621 37.149 7.61621 38.8193C7.61621 40.4896 8.97027 41.8437 10.6406 41.8437Z" fill="#4071F0"/>
<path d="M27.2744 41.8437C28.9447 41.8437 30.2988 40.4896 30.2988 38.8193C30.2988 37.149 28.9447 35.7949 27.2744 35.7949C25.6041 35.7949 24.25 37.149 24.25 38.8193C24.25 40.4896 25.6041 41.8437 27.2744 41.8437Z" fill="#4071F0"/>
</svg>
