<?xml version="1.0" encoding="UTF-8" standalone="no"?>
<!-- Created with Inkscape (http://www.inkscape.org/) -->

<svg
   version="1.1"
   id="svg2"
   width="666.66669"
   height="666.66669"
   viewBox="0 0 666.66669 666.66669"
   sodipodi:docname="14620625_5492342.ai"
   xmlns:inkscape="http://www.inkscape.org/namespaces/inkscape"
   xmlns:sodipodi="http://sodipodi.sourceforge.net/DTD/sodipodi-0.dtd"
   xmlns="http://www.w3.org/2000/svg"
   xmlns:svg="http://www.w3.org/2000/svg">
  <defs
     id="defs6">
    <clipPath
       clipPathUnits="userSpaceOnUse"
       id="clipPath16">
      <path
         d="M 0,500 H 500 V 0 H 0 Z"
         id="path14" />
    </clipPath>
    <clipPath
       clipPathUnits="userSpaceOnUse"
       id="clipPath46">
      <path
         d="m 415.822,104.843 h 17.49 V 62.3154 h -17.49 z"
         id="path44" />
    </clipPath>
    <clipPath
       clipPathUnits="userSpaceOnUse"
       id="clipPath78">
      <path
         d="m 214.05,158.51 h 85.99 v -18.799 h -85.99 z"
         id="path76" />
    </clipPath>
    <clipPath
       clipPathUnits="userSpaceOnUse"
       id="clipPath126">
      <path
         d="m 162.425,293.654 h 85.943 V 176.578 h -85.943 z"
         id="path124" />
    </clipPath>
    <clipPath
       clipPathUnits="userSpaceOnUse"
       id="clipPath142">
      <path
         d="m 263.348,293.654 h 85.943 V 176.578 h -85.943 z"
         id="path140" />
    </clipPath>
    <clipPath
       clipPathUnits="userSpaceOnUse"
       id="clipPath202">
      <path
         d="m 234.242,345.246 h 21.616 v -42.758 h -21.616 z"
         id="path200" />
    </clipPath>
    <clipPath
       clipPathUnits="userSpaceOnUse"
       id="clipPath234">
      <path
         d="M 169.734,140.653 H 348.621 V 62.2676 H 169.734 Z"
         id="path232" />
    </clipPath>
    <clipPath
       clipPathUnits="userSpaceOnUse"
       id="clipPath270">
      <path
         d="M 163.095,140.653 H 341.982 V 62.2676 H 163.095 Z"
         id="path268" />
    </clipPath>
    <clipPath
       clipPathUnits="userSpaceOnUse"
       id="clipPath286">
      <path
         d="m 134.612,142.121 h 72.63 V 78.8045 h -72.63 z"
         id="path284" />
    </clipPath>
    <clipPath
       clipPathUnits="userSpaceOnUse"
       id="clipPath316">
      <path
         d="m 337.428,166.415 h 14.685 v -20.379 h -14.685 z"
         id="path314" />
    </clipPath>
    <clipPath
       clipPathUnits="userSpaceOnUse"
       id="clipPath340">
      <path
         d="m 159.789,166.415 h 14.685 v -20.379 h -14.685 z"
         id="path338" />
    </clipPath>
    <clipPath
       clipPathUnits="userSpaceOnUse"
       id="clipPath376">
      <path
         d="m 219.322,112.452 h 29.046 V 93.225 h -29.046 z"
         id="path374" />
    </clipPath>
    <clipPath
       clipPathUnits="userSpaceOnUse"
       id="clipPath416">
      <path
         d="m 181.391,184.796 h 94.358 v -68.204 h -94.358 z"
         id="path414" />
    </clipPath>
    <clipPath
       clipPathUnits="userSpaceOnUse"
       id="clipPath432">
      <path
         d="m 181.391,181.053 h 145.664 v -1 H 181.391 Z"
         id="path430" />
    </clipPath>
    <clipPath
       clipPathUnits="userSpaceOnUse"
       id="clipPath580">
      <path
         d="M 230.494,470.254 H 260.08 V 403.528 H 230.494 Z"
         id="path578" />
    </clipPath>
    <clipPath
       clipPathUnits="userSpaceOnUse"
       id="clipPath668">
      <path
         d="m 89.8143,315.012 h 5.6467 v -5.647 h -5.6467 z"
         id="path666" />
    </clipPath>
    <clipPath
       clipPathUnits="userSpaceOnUse"
       id="clipPath684">
      <path
         d="m 112.619,326.848 h 5.647 v -5.647 h -5.647 z"
         id="path682" />
    </clipPath>
    <clipPath
       clipPathUnits="userSpaceOnUse"
       id="clipPath700">
      <path
         d="m 136.767,327.451 h 5.646 v -5.646 h -5.646 z"
         id="path698" />
    </clipPath>
    <clipPath
       clipPathUnits="userSpaceOnUse"
       id="clipPath716">
      <path
         d="m 82.7295,293.625 h 5.6467 v -5.646 h -5.6467 z"
         id="path714" />
    </clipPath>
    <clipPath
       clipPathUnits="userSpaceOnUse"
       id="clipPath732">
      <path
         d="m 102.74,280.816 h 5.647 v -5.647 h -5.647 z"
         id="path730" />
    </clipPath>
    <clipPath
       clipPathUnits="userSpaceOnUse"
       id="clipPath772">
      <path
         d="m 143.052,313.413 h 16.394 v -42.909 h -16.394 z"
         id="path770" />
    </clipPath>
    <clipPath
       clipPathUnits="userSpaceOnUse"
       id="clipPath812">
      <path
         d="m 403.892,293.157 h 30.249 v -44.605 h -30.249 z"
         id="path810" />
    </clipPath>
  </defs>
  <sodipodi:namedview
     id="namedview4"
     pagecolor="#ffffff"
     bordercolor="#000000"
     borderopacity="0.25"
     inkscape:showpageshadow="2"
     inkscape:pageopacity="0.0"
     inkscape:pagecheckerboard="0"
     inkscape:deskcolor="#d1d1d1" />
  <g
     id="g8"
     inkscape:groupmode="layer"
     inkscape:label="14620625_5492342"
     transform="matrix(1.3333333,0,0,-1.3333333,0,666.66667)">
    <g
       id="g10">
      <g
         id="g12"
         clip-path="url(#clipPath16)">
        <g
           id="g18"
           transform="translate(433.3121,61.1989)">
          <path
             d="m 0,0 c 0,-0.739 -7.876,-1.338 -17.592,-1.338 -9.716,0 -17.592,0.599 -17.592,1.338 0,0.738 7.876,1.337 17.592,1.337 C -7.876,1.337 0,0.738 0,0"
             style="fill:#97a3ca;fill-opacity:1;fill-rule:nonzero;stroke:none"
             id="path20" />
        </g>
        <g
           id="g22"
           transform="translate(417.9528,111.7809)">
          <path
             d="M 0,0 C 0,0 -15.063,10.233 -5.388,25.107 4.287,39.981 1.868,45.15 -1.518,49.339 6.706,39.981 4.903,29.321 0,22.558 -4.904,15.795 -5.682,6.592 0,0"
             style="fill:#b1b1b1;fill-opacity:1;fill-rule:nonzero;stroke:none"
             id="path24" />
        </g>
        <g
           id="g26"
           transform="translate(430.2428,99.0837)">
          <path
             d="m 0,0 h -29.045 l 2.835,-36.769 h 23.375 z"
             style="fill:#fefefe;fill-opacity:1;fill-rule:nonzero;stroke:none"
             id="path28" />
        </g>
        <path
           d="m 433.312,96.653 h -35.184 v 4.312 h 35.184 z"
           style="fill:#4d70e8;fill-opacity:1;fill-rule:nonzero;stroke:none"
           id="path30" />
        <g
           id="g32"
           transform="translate(426.403,104.8434)">
          <path
             d="m 0,0 h -21.365 c -2.121,0 -3.84,-1.72 -3.84,-3.84 V -3.879 H 3.84 V -3.84 C 3.84,-1.72 2.12,0 0,0"
             style="fill:#4d70e8;fill-opacity:1;fill-rule:nonzero;stroke:none"
             id="path34" />
        </g>
        <g
           id="g36"
           transform="translate(428.6276,78.1364)">
          <path
             d="M 0,0 0.687,8.906 H -26.501 L -25.814,0 Z"
             style="fill:#fbe063;fill-opacity:1;fill-rule:nonzero;stroke:none"
             id="path38" />
        </g>
        <g
           id="g40">
          <g
             id="g42" />
          <g
             id="g54">
            <g
               clip-path="url(#clipPath46)"
               id="g52">
              <g
                 transform="translate(430.2428,100.9645)"
                 id="g50">
                <path
                   d="m 0,0 v 0.039 c 0,2.12 -1.72,3.84 -3.84,3.84 h -10.581 c 2.121,0 3.84,-1.72 3.84,-3.84 V 0 h 3.069 v -4.312 h -3.257 l -2.647,-34.337 h 10.581 l 2.648,34.337 H 3.069 V 0 Z"
                   style="fill:#b1b1b1;fill-opacity:1;fill-rule:nonzero;stroke:none"
                   id="path48" />
              </g>
            </g>
          </g>
        </g>
        <g
           id="g56"
           transform="translate(274.3131,329.612)">
          <path
             d="m 0,0 c 0,0 6.087,19.089 -2.807,24.633 -5.653,2.905 -8.741,-0.714 -8.741,-0.714 0,0 -2.658,13.497 -20.975,9.039 -11.865,-2.888 -15.607,3.228 -15.607,3.228 0,0 -0.112,-16.92 8.059,-21.951 5.916,-5.073 3.647,-18.785 3.647,-18.785 z"
             style="fill:#1b1c21;fill-opacity:1;fill-rule:nonzero;stroke:none"
             id="path58" />
        </g>
        <g
           id="g60"
           transform="translate(328.274,80.1579)">
          <path
             d="m 0,0 c 0,0 32.977,-0.99 42.18,-9.486 9.678,-8.935 19.833,-22.887 -21.833,-22.618 -41.665,0.269 -78.603,11.737 -113.549,8.097 -34.946,-3.639 -63.623,-9.914 -71.977,-8.522 -8.354,1.392 51.191,29.917 51.191,29.917 L -3.438,-6.67 Z"
             style="fill:#97a3ca;fill-opacity:1;fill-rule:nonzero;stroke:none"
             id="path62" />
        </g>
        <g
           id="g64"
           transform="translate(297.4303,154.3337)">
          <path
             d="M 0,0 -41.572,4.177 -83.145,0 c 0,0 -2.469,-19.643 -10.497,-30.121 l 52.07,-18.7 52.069,18.7 C 2.47,-19.643 0,0 0,0"
             style="fill:#cdb955;fill-opacity:1;fill-rule:nonzero;stroke:none"
             id="path66" />
        </g>
        <g
           id="g68"
           transform="translate(254.2164,106.1022)">
          <path
             d="m 0,0 c 1.64,-0.589 1.642,-0.59 1.642,-0.59 0,0 0.002,0.001 1.639,0.589 9.58,22.039 7.288,46.765 6.72,51.569 L 1.642,52.408 -9.057,51.333 C -9.27,46.052 -9.627,21.897 0,0"
             style="fill:#cdb955;fill-opacity:1;fill-rule:nonzero;stroke:none"
             id="path70" />
        </g>
        <g
           id="g72">
          <g
             id="g74" />
          <g
             id="g86">
            <g
               clip-path="url(#clipPath78)"
               id="g84">
              <g
                 transform="translate(214.0495,152.7311)"
                 id="g82">
                <path
                   d="m 0,0 c 0.002,-0.001 43.745,-19.294 85.991,-10.909 -1.898,6.858 -2.61,12.512 -2.61,12.512 L 41.809,5.779 8.414,2.424 Z"
                   style="fill:#9a5331;fill-opacity:1;fill-rule:nonzero;stroke:none"
                   id="path80" />
              </g>
            </g>
          </g>
        </g>
        <g
           id="g88"
           transform="translate(234.2423,343.8469)">
          <path
             d="m 0,0 c 5.916,-5.073 3.647,-18.785 3.647,-18.785 l 7.739,0.967 c 7.948,7.072 16.92,16.027 15.617,19.401 C 24.72,7.495 18.126,13.396 5.967,14.07 -6.192,14.745 -8.06,21.951 -8.06,21.951 -8.06,21.951 -8.171,5.031 0,0"
             style="fill:#1b1c21;fill-opacity:1;fill-rule:nonzero;stroke:none"
             id="path90" />
        </g>
        <g
           id="g92"
           transform="translate(254.3493,295.945)">
          <path
             d="m 0,0 -34.369,-12.529 -5.694,-129.082 c 0,0 12.148,-5.695 41.572,-5.695 V -2.004 Z"
             style="fill:#fbe063;fill-opacity:1;fill-rule:nonzero;stroke:none"
             id="path94" />
        </g>
        <g
           id="g96"
           transform="translate(257.3678,295.945)">
          <path
             d="m 0,0 34.367,-12.529 5.696,-129.082 c 0,0 -12.149,-5.695 -41.573,-5.695 V -2.004 Z"
             style="fill:#fbe063;fill-opacity:1;fill-rule:nonzero;stroke:none"
             id="path98" />
        </g>
        <g
           id="g100"
           transform="translate(219.9806,283.4162)">
          <path
             d="m 0,0 -0.159,-0.057 c -10.039,-3.585 -18.061,-11.3 -22.034,-21.193 l -36.891,-89.288 31.369,-3.738 26.556,65.085 z"
             style="fill:#ffbf9d;fill-opacity:1;fill-rule:nonzero;stroke:none"
             id="path102" />
        </g>
        <g
           id="g104"
           transform="translate(291.735,283.4162)">
          <path
             d="m 0,0 0.16,-0.057 c 10.039,-3.585 18.061,-11.3 22.034,-21.193 l 36.891,-89.288 -31.37,-3.738 -26.556,65.085 z"
             style="fill:#ffbf9d;fill-opacity:1;fill-rule:nonzero;stroke:none"
             id="path106" />
        </g>
        <g
           id="g108"
           transform="translate(328.2535,227.4958)">
          <path
             d="m 0,0 -14.324,34.671 c -3.974,9.892 -11.995,17.607 -22.034,21.193 l -0.161,0.056 1.161,-49.191 7.522,-18.438 C -17.794,-3.297 -7.718,-0.565 0,0"
             style="fill:#fbe063;fill-opacity:1;fill-rule:nonzero;stroke:none"
             id="path110" />
        </g>
        <g
           id="g112"
           transform="translate(183.4621,227.4958)">
          <path
             d="m 0,0 14.325,34.671 c 3.974,9.892 11.995,17.607 22.034,21.193 l 0.16,0.056 -1.16,-49.191 -7.523,-18.438 C 17.794,-3.297 7.718,-0.565 0,0"
             style="fill:#fbe063;fill-opacity:1;fill-rule:nonzero;stroke:none"
             id="path114" />
        </g>
        <g
           id="g116"
           transform="translate(293.9811,232.5241)">
          <path
             d="m 0,0 c 0,0 -0.932,1.304 -2.245,3.748 l 1.158,-2.047 c 0,0 -13.075,-72.575 -48.031,-85.299 3.361,-0.18 7.014,-0.287 10.995,-0.287 29.424,0 41.572,5.695 41.572,5.695 z"
             style="fill:#d4d4d4;fill-opacity:1;fill-rule:nonzero;stroke:none"
             id="path118" />
        </g>
        <g
           id="g120">
          <g
             id="g122" />
          <g
             id="g134">
            <g
               clip-path="url(#clipPath126)"
               opacity="0.520004"
               id="g132">
              <g
                 transform="translate(203.7887,242.0339)"
                 id="g130">
                <path
                   d="M 0,0 C 8.865,24.868 9.358,24.678 28.721,29.233 48.083,33.79 44.276,51.62 44.276,51.62 L 26.224,45.04 23.432,44.021 16.192,41.382 16.033,41.326 C 5.994,37.74 -2.028,30.025 -6.001,20.133 L -41.364,-65.456 C -26.43,-54.463 -7.55,-21.179 0,0"
                   style="fill:#fff6e7;fill-opacity:1;fill-rule:nonzero;stroke:none"
                   id="path128" />
              </g>
            </g>
          </g>
        </g>
        <g
           id="g136">
          <g
             id="g138" />
          <g
             id="g150">
            <g
               clip-path="url(#clipPath142)"
               opacity="0.279999"
               id="g148">
              <g
                 transform="translate(307.9274,242.0339)"
                 id="g146">
                <path
                   d="M 0,0 C -8.865,24.868 -9.358,24.678 -28.721,29.233 -48.083,33.79 -44.275,51.62 -44.275,51.62 l 18.051,-6.58 2.792,-1.019 7.24,-2.639 0.16,-0.056 C -5.993,37.74 2.028,30.025 6.002,20.133 L 41.364,-65.456 C 26.43,-54.463 7.551,-21.179 0,0"
                   style="fill:#552624;fill-opacity:1;fill-rule:nonzero;stroke:none"
                   id="path144" />
              </g>
            </g>
          </g>
        </g>
        <g
           id="g152"
           transform="translate(255.9508,280.0197)">
          <path
             d="m 0,0 h -0.186 c -5.08,0 -9.198,4.119 -9.198,9.199 V 31.162 H 9.199 V 9.199 C 9.199,4.119 5.08,0 0,0"
             style="fill:#ffbf9d;fill-opacity:1;fill-rule:nonzero;stroke:none"
             id="path154" />
        </g>
        <g
           id="g156"
           transform="translate(265.0006,294.2414)">
          <path
             d="M 0,0 C 0.053,0 0.097,0.006 0.149,0.007 V 16.94 h -8.674 l -9.909,-3.581 C -18.434,13.359 -14.747,0 0,0"
             style="fill:#ffbf9d;fill-opacity:1;fill-rule:nonzero;stroke:none"
             id="path158" />
        </g>
        <g
           id="g160"
           transform="translate(277.4742,324.3762)">
          <path
             d="m 0,0 c 0,-3.295 -2.672,-5.967 -5.968,-5.967 -3.295,0 -5.967,2.672 -5.967,5.967 0,3.295 2.672,5.967 5.967,5.967 C -2.672,5.967 0,3.295 0,0"
             style="fill:#ffbf9d;fill-opacity:1;fill-rule:nonzero;stroke:none"
             id="path162" />
        </g>
        <g
           id="g164"
           transform="translate(272.6686,318.5261)">
          <path
             d="m 0,0 c 0.862,3.459 1.368,7.884 1.645,11.086 -0.84,0.452 -1.787,0.731 -2.807,0.731 -3.295,0 -5.967,-2.671 -5.967,-5.967 0,-3.295 2.672,-5.967 5.967,-5.967 0.398,0 0.786,0.043 1.162,0.117"
             style="fill:#ffbf9d;fill-opacity:1;fill-rule:nonzero;stroke:none"
             id="path166" />
        </g>
        <g
           id="g168"
           transform="translate(234.2423,324.3762)">
          <path
             d="m 0,0 c 0,-3.295 2.672,-5.967 5.967,-5.967 3.296,0 5.967,2.672 5.967,5.967 0,3.295 -2.671,5.967 -5.967,5.967 C 2.672,5.967 0,3.295 0,0"
             style="fill:#ffbf9d;fill-opacity:1;fill-rule:nonzero;stroke:none"
             id="path170" />
        </g>
        <g
           id="g172"
           transform="translate(239.048,318.5261)">
          <path
             d="m 0,0 c -0.863,3.459 -1.368,7.884 -1.645,11.086 0.84,0.452 1.786,0.731 2.807,0.731 3.295,0 5.967,-2.671 5.967,-5.967 0,-3.295 -2.672,-5.967 -5.967,-5.967 C 0.764,-0.117 0.376,-0.074 0,0"
             style="fill:#ffbf9d;fill-opacity:1;fill-rule:nonzero;stroke:none"
             id="path174" />
        </g>
        <g
           id="g176"
           transform="translate(266.36,345.2458)">
          <path
             d="m 0,0 h -10.502 -10.502 l -5.198,-11.357 0.874,-11.241 c 0.467,-5.998 4.343,-16.355 9.794,-18.9 1.62,-0.755 3.336,-1.26 5.032,-1.26 1.696,0 3.412,0.505 5.032,1.26 5.451,2.545 9.327,12.902 9.794,18.9 l 0.874,11.241 z"
             style="fill:#ffbf9d;fill-opacity:1;fill-rule:nonzero;stroke:none"
             id="path178" />
        </g>
        <g
           id="g180"
           transform="translate(261.2457,330.989)">
          <path
             d="M 0,0 C 0,0 3.523,-0.987 7.511,0"
             style="fill:none;stroke:#2b2b32;stroke-width:1.336;stroke-linecap:round;stroke-linejoin:miter;stroke-miterlimit:10;stroke-dasharray:none;stroke-opacity:1"
             id="path182" />
        </g>
        <g
           id="g184"
           transform="translate(260.1071,337.4479)">
          <path
             d="M 0,0 C 0,0 5.146,0.856 8.24,-0.927"
             style="fill:none;stroke:#2b2b32;stroke-width:2.672;stroke-linecap:round;stroke-linejoin:miter;stroke-miterlimit:10;stroke-dasharray:none;stroke-opacity:1"
             id="path186" />
        </g>
        <g
           id="g188"
           transform="translate(250.4708,330.989)">
          <path
             d="M 0,0 C 0,0 -3.524,-0.987 -7.511,0"
             style="fill:none;stroke:#2b2b32;stroke-width:1.336;stroke-linecap:round;stroke-linejoin:miter;stroke-miterlimit:10;stroke-dasharray:none;stroke-opacity:1"
             id="path190" />
        </g>
        <g
           id="g192"
           transform="translate(251.609,337.4479)">
          <path
             d="M 0,0 C 0,0 -5.146,0.856 -8.24,-0.927"
             style="fill:none;stroke:#2b2b32;stroke-width:2.672;stroke-linecap:round;stroke-linejoin:miter;stroke-miterlimit:10;stroke-dasharray:none;stroke-opacity:1"
             id="path194" />
        </g>
        <g
           id="g196">
          <g
             id="g198" />
          <g
             id="g210">
            <g
               clip-path="url(#clipPath202)"
               opacity="0.520004"
               id="g208">
              <g
                 transform="translate(247.4889,321.1945)"
                 id="g206">
                <path
                   d="M 0,0 C -0.686,11.357 -2.133,24.051 -2.133,24.051 L -7.331,12.694 -7.053,9.126 c -0.077,0.003 -0.149,0.023 -0.226,0.023 -3.296,0 -5.968,-2.672 -5.968,-5.967 0,-3.296 2.672,-5.968 5.968,-5.968 0.522,0 1.019,0.089 1.502,0.215 1.405,-5.804 4.752,-12.839 9.114,-14.875 1.62,-0.756 3.336,-1.261 5.032,-1.261 0,0 -7.683,7.35 -8.369,18.707"
                   style="fill:#fff6e7;fill-opacity:1;fill-rule:nonzero;stroke:none"
                   id="path204" />
              </g>
            </g>
          </g>
        </g>
        <g
           id="g212"
           transform="translate(291.735,103.8395)">
          <path
             d="m 0,0 -118.768,36.035 c -15.77,4.784 -32.356,-4.499 -36.523,-20.442 l -0.158,-0.602 c -4.294,-16.427 6.358,-33.022 23.083,-35.945 C -88.453,-28.63 -8.859,-41.685 33.03,-43.28 l 17.658,-11.772 c 2.666,-1.778 6.206,-1.485 8.543,0.707 l 0.091,0.085 c 2.779,2.605 2.921,6.968 0.318,9.747 l -2.754,2.941 c 0,0 -2.454,11.96 -14.579,17.085 C 30.183,-19.362 29.044,-6.834 26.196,0 23.35,6.834 5.126,10.251 0,0"
             style="fill:#ffbf9d;fill-opacity:1;fill-rule:nonzero;stroke:none"
             id="path214" />
        </g>
        <g
           id="g216"
           transform="translate(136.4435,119.4323)">
          <path
             d="M 0,0 C 4.168,15.943 20.754,25.227 36.523,20.442 L 76.8,8.222 C 70.733,0.653 62.731,-14.711 62.49,-43.226 c -14.706,2.391 -28.31,4.711 -39.564,6.679 -16.725,2.923 -27.377,19.519 -23.083,35.945 z"
             style="fill:#fbe063;fill-opacity:1;fill-rule:nonzero;stroke:none"
             id="path218" />
        </g>
        <g
           id="g220"
           transform="translate(173.9098,94.3815)">
          <path
             d="m 0,0 c 0,-4.844 -1.162,-9.413 -3.21,-13.457 -3.977,0.682 -7.782,1.34 -11.331,1.961 -16.724,2.923 -27.376,19.518 -23.083,35.945 l 0.158,0.602 c 0.374,1.431 0.852,2.807 1.417,4.126 2.007,0.426 4.085,0.654 6.218,0.654 C -13.356,29.831 0,16.475 0,0"
             style="fill:#cdb955;fill-opacity:1;fill-rule:nonzero;stroke:none"
             id="path222" />
        </g>
        <g
           id="g224"
           transform="translate(297.4303,87.3249)">
          <path
             d="M 0,0 C 0,0 -1.709,-9.953 -18.224,-6.4"
             style="fill:none;stroke:#8d3935;stroke-width:1.139;stroke-linecap:butt;stroke-linejoin:miter;stroke-miterlimit:10;stroke-dasharray:none;stroke-opacity:1"
             id="path226" />
        </g>
        <g
           id="g228">
          <g
             id="g230" />
          <g
             id="g242">
            <g
               clip-path="url(#clipPath234)"
               opacity="0.279999"
               id="g240">
              <g
                 transform="translate(307.9274,91.8806)"
                 id="g238">
                <path
                   d="m 0,0 c 0,0 -25.304,1.139 -78.835,10.688 -43.369,7.736 -56.091,29.934 -59.359,38.084 1.079,-0.197 2.158,-0.452 3.234,-0.778 L -16.192,11.959 c 5.126,10.251 23.349,6.834 26.196,0 2.848,-6.834 3.986,-19.362 16.11,-24.487 12.125,-5.125 14.579,-17.085 14.579,-17.085 0,0 -12.465,7.972 -20.346,9.681 C 12.466,-18.224 0,0 0,0"
                   style="fill:#552624;fill-opacity:1;fill-rule:nonzero;stroke:none"
                   id="path236" />
              </g>
            </g>
          </g>
        </g>
        <g
           id="g244"
           transform="translate(313.4069,61.1989)">
          <path
             d="m 0,0 c 0,0 21.809,-20.867 40.401,-12.28 3.094,1.427 4.064,5.378 2.043,8.122 -15.662,21.271 -35.408,44.444 -42.935,53.153 -1.884,2.18 -4.867,3.061 -7.634,2.257 l -21.419,-6.223 z"
             style="fill:#1b1c21;fill-opacity:1;fill-rule:nonzero;stroke:none"
             id="path246" />
        </g>
        <g
           id="g248"
           transform="translate(283.8629,106.2282)">
          <path
             d="m 0,0 -20.515,6.225 15.54,-47.821 34.519,-3.433 z"
             style="fill:#a7a7a7;fill-opacity:1;fill-rule:nonzero;stroke:none"
             id="path250" />
        </g>
        <g
           id="g252"
           transform="translate(219.9806,103.8395)">
          <path
             d="m 0,0 118.769,36.035 c 15.77,4.784 32.355,-4.499 36.522,-20.442 l 0.159,-0.602 C 159.744,-1.436 149.091,-18.031 132.366,-20.954 88.454,-28.63 8.86,-41.685 -33.03,-43.28 l -17.658,-11.772 c -2.666,-1.778 -6.205,-1.485 -8.543,0.707 l -0.091,0.085 c -2.778,2.605 -2.92,6.968 -0.317,9.747 l 2.753,2.941 c 0,0 2.455,11.96 14.579,17.085 C -30.183,-19.362 -29.043,-6.834 -26.196,0 -23.349,6.834 -5.125,10.251 0,0"
             style="fill:#ffbf9d;fill-opacity:1;fill-rule:nonzero;stroke:none"
             id="path254" />
        </g>
        <g
           id="g256"
           transform="translate(375.2721,119.4323)">
          <path
             d="M 0,0 C -4.167,15.943 -20.753,25.227 -36.522,20.442 L -76.8,8.222 c 6.067,-7.569 14.07,-22.933 14.311,-51.448 14.705,2.391 28.31,4.711 39.563,6.679 16.726,2.923 27.378,19.519 23.084,35.945 z"
             style="fill:#fbe063;fill-opacity:1;fill-rule:nonzero;stroke:none"
             id="path258" />
        </g>
        <g
           id="g260"
           transform="translate(337.8063,94.3815)">
          <path
             d="m 0,0 c 0,-4.844 1.162,-9.413 3.21,-13.457 3.977,0.682 7.782,1.34 11.33,1.961 16.726,2.923 27.378,19.518 23.084,35.945 l -0.158,0.602 c -0.374,1.431 -0.852,2.807 -1.417,4.126 -2.006,0.426 -4.085,0.654 -6.218,0.654 C 13.356,29.831 0,16.475 0,0"
             style="fill:#cdb955;fill-opacity:1;fill-rule:nonzero;stroke:none"
             id="path262" />
        </g>
        <g
           id="g264">
          <g
             id="g266" />
          <g
             id="g278">
            <g
               clip-path="url(#clipPath270)"
               opacity="0.279999"
               id="g276">
              <g
                 transform="translate(203.7887,91.8806)"
                 id="g274">
                <path
                   d="m 0,0 c 0,0 25.304,1.139 78.835,10.688 43.369,7.736 56.091,29.934 59.358,38.084 -1.078,-0.197 -2.157,-0.452 -3.232,-0.778 L 16.192,11.959 c -5.125,10.251 -23.349,6.834 -26.196,0 -2.848,-6.834 -3.987,-19.362 -16.111,-24.487 -12.124,-5.125 -14.579,-17.085 -14.579,-17.085 0,0 12.466,7.972 20.347,9.681 C -12.466,-18.224 0,0 0,0"
                   style="fill:#552624;fill-opacity:1;fill-rule:nonzero;stroke:none"
                   id="path272" />
              </g>
            </g>
          </g>
        </g>
        <g
           id="g280">
          <g
             id="g282" />
          <g
             id="g294">
            <g
               clip-path="url(#clipPath286)"
               opacity="0.570007"
               id="g292">
              <g
                 transform="translate(177.674,79.3522)"
                 id="g290">
                <path
                   d="M 0,0 -17.804,3.301 C -33.917,5.873 -44.831,21.106 -42.082,37.19 l 0.108,0.631 c 2.997,17.536 20.797,28.384 37.757,23.008 L 29.399,50.174"
                   style="fill:none;stroke:#ffffff;stroke-width:1.114;stroke-linecap:butt;stroke-linejoin:miter;stroke-miterlimit:10;stroke-dasharray:none;stroke-opacity:1"
                   id="path288" />
              </g>
            </g>
          </g>
        </g>
        <g
           id="g296"
           transform="translate(249.7516,321.3806)">
          <path
             d="m 0,0 c -0.64,0 -1.016,-0.742 -0.623,-1.247 1.783,-2.289 4.144,-3.688 6.738,-3.688 2.595,0 4.955,1.399 6.738,3.688 C 13.246,-0.742 12.87,0 12.23,0 Z"
             style="fill:#ffffff;fill-opacity:1;fill-rule:nonzero;stroke:none"
             id="path298" />
        </g>
        <g
           id="g300"
           transform="translate(257.6207,331.2399)">
          <path
             d="m 0,0 v -6.178 c 0,0 -1.421,0.803 -3.397,0"
             style="fill:none;stroke:#2b2b32;stroke-width:0.821;stroke-linecap:round;stroke-linejoin:miter;stroke-miterlimit:10;stroke-dasharray:none;stroke-opacity:1"
             id="path302" />
        </g>
        <path
           d="m 261.246,343.864 h 1.52 v 9.667 h -1.52 z"
           style="fill:#ffbf9d;fill-opacity:1;fill-rule:nonzero;stroke:none"
           id="path304" />
        <g
           id="g306"
           transform="translate(350.8199,172.8786)">
          <path
             d="m 0,0 0.062,-0.174 c 3.56,-9.856 -0.704,-20.827 -9.986,-25.692 l -63.422,-33.247 -0.313,0.81 c -5.588,14.435 0.256,30.784 13.728,38.407 l 28.561,16.158 z"
             style="fill:#ffbf9d;fill-opacity:1;fill-rule:nonzero;stroke:none"
             id="path308" />
        </g>
        <g
           id="g310">
          <g
             id="g312" />
          <g
             id="g324">
            <g
               clip-path="url(#clipPath316)"
               opacity="0.279999"
               id="g322">
              <g
                 transform="translate(337.4283,152.5143)"
                 id="g320">
                <path
                   d="m 0,0 c 0,-2.341 0.584,-4.543 1.606,-6.479 l 1.862,0.977 c 7.32,3.837 11.5,11.473 11.201,19.364 C 14.413,13.876 14.16,13.9 13.9,13.9 6.223,13.9 0,7.677 0,0"
                   style="fill:#552624;fill-opacity:1;fill-rule:nonzero;stroke:none"
                   id="path318" />
              </g>
            </g>
          </g>
        </g>
        <g
           id="g326"
           transform="translate(319.4498,169.1403)">
          <path
             d="M 0,0 17.979,10.195"
             style="fill:none;stroke:#552624;stroke-width:1.336;stroke-linecap:round;stroke-linejoin:miter;stroke-miterlimit:10;stroke-dasharray:none;stroke-opacity:1"
             id="path328" />
        </g>
        <g
           id="g330"
           transform="translate(161.0822,172.8786)">
          <path
             d="m 0,0 -0.063,-0.174 c -3.56,-9.856 0.705,-20.827 9.986,-25.692 l 63.423,-33.247 0.314,0.81 c 5.587,14.435 -0.257,30.784 -13.729,38.407 L 31.37,-3.738 Z"
             style="fill:#ffbf9d;fill-opacity:1;fill-rule:nonzero;stroke:none"
             id="path332" />
        </g>
        <g
           id="g334">
          <g
             id="g336" />
          <g
             id="g348">
            <g
               clip-path="url(#clipPath340)"
               opacity="0.279999"
               id="g346">
              <g
                 transform="translate(174.4743,152.5143)"
                 id="g344">
                <path
                   d="m 0,0 c 0,-2.341 -0.585,-4.543 -1.607,-6.479 l -1.862,0.977 c -7.32,3.837 -11.499,11.473 -11.201,19.364 0.256,0.014 0.509,0.038 0.769,0.038 C -6.224,13.9 0,7.677 0,0"
                   style="fill:#552624;fill-opacity:1;fill-rule:nonzero;stroke:none"
                   id="path342" />
              </g>
            </g>
          </g>
        </g>
        <g
           id="g350"
           transform="translate(192.4518,169.1403)">
          <path
             d="M 0,0 -17.978,10.195"
             style="fill:none;stroke:#552624;stroke-width:1.336;stroke-linecap:round;stroke-linejoin:miter;stroke-miterlimit:10;stroke-dasharray:none;stroke-opacity:1"
             id="path352" />
        </g>
        <g
           id="g354"
           transform="translate(227.3903,117.4548)">
          <path
             d="M 0,0 C 0,0 3.201,17.563 -7.224,23.198"
             style="fill:none;stroke:#552624;stroke-width:1.336;stroke-linecap:round;stroke-linejoin:miter;stroke-miterlimit:10;stroke-dasharray:none;stroke-opacity:1"
             id="path356" />
        </g>
        <g
           id="g358"
           transform="translate(284.3258,117.4548)">
          <path
             d="M 0,0 C 0,0 -3.201,17.563 7.224,23.198"
             style="fill:none;stroke:#552624;stroke-width:1.336;stroke-linecap:round;stroke-linejoin:miter;stroke-miterlimit:10;stroke-dasharray:none;stroke-opacity:1"
             id="path360" />
        </g>
        <g
           id="g362"
           transform="translate(198.3092,61.1989)">
          <path
             d="m 0,0 c 0,0 -21.809,-20.867 -40.402,-12.28 -3.093,1.427 -4.062,5.378 -2.042,8.122 15.662,21.271 35.408,44.444 42.936,53.153 1.883,2.18 4.866,3.061 7.633,2.257 l 21.419,-6.223 z"
             style="fill:#1b1c21;fill-opacity:1;fill-rule:nonzero;stroke:none"
             id="path364" />
        </g>
        <g
           id="g366"
           transform="translate(227.8537,106.2282)">
          <path
             d="M 0,0 20.514,6.225 4.975,-41.596 -29.544,-45.029 Z"
             style="fill:#ededed;fill-opacity:1;fill-rule:nonzero;stroke:none"
             id="path368" />
        </g>
        <g
           id="g370">
          <g
             id="g372" />
          <g
             id="g384">
            <g
               clip-path="url(#clipPath376)"
               opacity="0.279999"
               id="g382">
              <g
                 transform="translate(219.3219,93.2253)"
                 id="g380">
                <path
                   d="M 0,0 C 6.085,0.648 13.989,1.6 23.766,2.979 L 29.046,19.228 8.532,13.003 Z"
                   style="fill:#552624;fill-opacity:1;fill-rule:nonzero;stroke:none"
                   id="path378" />
              </g>
            </g>
          </g>
        </g>
        <g
           id="g386"
           transform="translate(204.8454,75.7224)">
          <path
             d="m 0,0 -11.901,-18.139 c -0.741,-1.129 -2.065,-1.732 -3.403,-1.55 l -0.079,0.01 c -2.578,0.351 -3.89,3.287 -2.431,5.442 L -5.643,3.731 c 0.779,1.15 2.186,1.7 3.538,1.382 l 0.07,-0.015 C 0.229,4.566 1.276,1.944 0,0"
             style="fill:#fff6e7;fill-opacity:1;fill-rule:nonzero;stroke:none"
             id="path388" />
        </g>
        <g
           id="g390"
           transform="translate(254.2223,180.5534)">
          <path
             d="m 0,0 h -72.832 l 17.957,-63.962 H 0 54.875 L 72.833,0 Z"
             style="fill:#b7c5f5;fill-opacity:1;fill-rule:nonzero;stroke:none"
             id="path392" />
        </g>
        <path
           d="M 309.097,107.275 H 199.348 v 9.316 h 109.749 z"
           style="fill:#4d70e8;fill-opacity:1;fill-rule:nonzero;stroke:none"
           id="path394" />
        <g
           id="g396"
           transform="translate(272.1559,143.5319)">
          <path
             d="m 0,0 c 0,-5.037 -7.973,-9.12 -17.809,-9.12 -9.834,0 -17.807,4.083 -17.807,9.12 0,5.036 7.973,9.12 17.807,9.12 C -7.973,9.12 0,5.036 0,0"
             style="fill:#4d70e8;fill-opacity:1;fill-rule:nonzero;stroke:none"
             id="path398" />
        </g>
        <path
           d="M 327.055,184.797 H 181.39 v -4.243 h 145.665 z"
           style="fill:#4d70e8;fill-opacity:1;fill-rule:nonzero;stroke:none"
           id="path400" />
        <path
           d="m 216.419,110.172 h -10.991 v 3.745 h 10.991 z"
           style="fill:#4d70e8;fill-opacity:1;fill-rule:nonzero;stroke:none"
           id="path402" />
        <path
           d="M 232.281,110.172 H 221.29 v 3.745 h 10.991 z"
           style="fill:#4d70e8;fill-opacity:1;fill-rule:nonzero;stroke:none"
           id="path404" />
        <g
           id="g406"
           transform="translate(309.0973,111.9333)">
          <path
             d="M 0,0 H -66.793"
             style="fill:none;stroke:#050a00;stroke-width:1;stroke-linecap:butt;stroke-linejoin:miter;stroke-miterlimit:10;stroke-dasharray:none;stroke-opacity:1"
             id="path408" />
        </g>
        <g
           id="g410">
          <g
             id="g412" />
          <g
             id="g424">
            <g
               clip-path="url(#clipPath416)"
               opacity="0.539993"
               id="g422">
              <g
                 transform="translate(181.3908,180.5534)"
                 id="g420">
                <path
                   d="M 0,0 17.957,-63.962 H 57.046 C 80.255,-37.052 94.359,0 94.359,0 L 94.31,4.243 H 0 Z"
                   style="fill:#ffffff;fill-opacity:1;fill-rule:nonzero;stroke:none"
                   id="path418" />
              </g>
            </g>
          </g>
        </g>
        <g
           id="g426">
          <g
             id="g428" />
          <g
             id="g440">
            <g
               clip-path="url(#clipPath432)"
               opacity="0.570007"
               id="g438">
              <g
                 transform="translate(181.3908,180.5534)"
                 id="g436">
                <path
                   d="M 0,0 H 145.665"
                   style="fill:none;stroke:#050a00;stroke-width:1;stroke-linecap:butt;stroke-linejoin:miter;stroke-miterlimit:10;stroke-dasharray:none;stroke-opacity:1"
                   id="path434" />
              </g>
            </g>
          </g>
        </g>
        <g
           id="g442"
           transform="translate(132.1339,61.1989)">
          <path
             d="m 0,0 c 0,-0.739 -11.825,-1.338 -26.412,-1.338 -14.587,0 -26.412,0.599 -26.412,1.338 0,0.738 11.825,1.337 26.412,1.337 C -11.825,1.337 0,0.738 0,0"
             style="fill:#97a3ca;fill-opacity:1;fill-rule:nonzero;stroke:none"
             id="path444" />
        </g>
        <g
           id="g446"
           transform="translate(109.5841,74.3513)">
          <path
             d="M 0,0 1.731,1.887 0.865,0.943 1.738,1.879 C 1.525,2.082 -19.318,23.214 5.859,118.438 l -2.476,0.656 C -22.321,21.875 -0.923,0.848 0,0"
             style="fill:#4d70e8;fill-opacity:1;fill-rule:nonzero;stroke:none"
             id="path448" />
        </g>
        <g
           id="g450"
           transform="translate(101.8185,191.1511)">
          <path
             d="m 0,0 c 9.537,-8.666 7.865,-18.912 7.865,-18.912 0,0 -9.55,4.073 -11.765,16.766 C -4.289,0.08 -1.672,1.52 0,0"
             style="fill:#4d70e8;fill-opacity:1;fill-rule:nonzero;stroke:none"
             id="path452" />
        </g>
        <g
           id="g454"
           transform="translate(125.6784,185.0339)">
          <path
             d="m 0,0 c -12.529,-3.008 -15.995,-12.795 -15.995,-12.795 0,0 10.331,-1.024 18.382,9.037 C 3.798,-1.994 2.197,0.527 0,0"
             style="fill:#4d70e8;fill-opacity:1;fill-rule:nonzero;stroke:none"
             id="path456" />
        </g>
        <g
           id="g458"
           transform="translate(95.2848,166.2477)">
          <path
             d="m 0,0 c 10.359,-7.664 9.726,-18.026 9.726,-18.026 0,0 -9.911,3.091 -13.391,15.499 C -4.275,-0.353 -1.816,1.344 0,0"
             style="fill:#4d70e8;fill-opacity:1;fill-rule:nonzero;stroke:none"
             id="path460" />
        </g>
        <g
           id="g462"
           transform="translate(119.6388,162.5583)">
          <path
             d="m 0,0 c -12.164,-4.252 -14.628,-14.337 -14.628,-14.337 0,0 10.382,0.019 17.38,10.838 C 3.979,-1.602 2.132,0.746 0,0"
             style="fill:#4d70e8;fill-opacity:1;fill-rule:nonzero;stroke:none"
             id="path464" />
        </g>
        <g
           id="g466"
           transform="translate(91.1442,144.4079)">
          <path
             d="m 0,0 c 10.898,-6.876 11.033,-17.257 11.033,-17.257 0,0 -10.112,2.351 -14.501,14.466 C -4.237,-0.667 -1.911,1.206 0,0"
             style="fill:#4d70e8;fill-opacity:1;fill-rule:nonzero;stroke:none"
             id="path468" />
        </g>
        <g
           id="g470"
           transform="translate(115.7042,142.5319)">
          <path
             d="m 0,0 c -11.816,-5.141 -13.527,-15.381 -13.527,-15.381 0,0 10.352,0.787 16.53,12.095 C 4.087,-1.304 2.072,0.901 0,0"
             style="fill:#4d70e8;fill-opacity:1;fill-rule:nonzero;stroke:none"
             id="path472" />
        </g>
        <g
           id="g474"
           transform="translate(122.2467,210.2321)">
          <path
             d="m 0,0 c 0.216,-12.884 -8.395,-18.683 -8.395,-18.683 0,0 -3.572,9.748 4.16,20.056 C -2.879,3.18 -0.038,2.26 0,0"
             style="fill:#4d70e8;fill-opacity:1;fill-rule:nonzero;stroke:none"
             id="path476" />
        </g>
        <path
           d="M 118.564,61.796 H 90.875 v 54.775 h 27.689 z"
           style="fill:#fbe063;fill-opacity:1;fill-rule:nonzero;stroke:none"
           id="path478" />
        <path
           d="m 118.564,61.796 h -11.062 v 54.775 h 11.062 z"
           style="fill:#cdb955;fill-opacity:1;fill-rule:nonzero;stroke:none"
           id="path480" />
        <g
           id="g482"
           transform="translate(130.7233,377.8234)">
          <path
             d="m 0,0 -9.963,-2.478 c -1.446,-0.359 -2.909,0.521 -3.268,1.967 L -14.19,3.344 1.007,7.125 1.966,3.269 C 2.326,1.823 1.445,0.359 0,0"
             style="fill:#cdb955;fill-opacity:1;fill-rule:nonzero;stroke:none"
             id="path484" />
        </g>
        <g
           id="g486"
           transform="translate(167.7448,389.7053)">
          <path
             d="m 0,0 -86.067,-21.405 c -1.494,-0.371 -3.006,0.538 -3.377,2.031 l -14.195,57.075 c -0.371,1.493 0.538,3.005 2.032,3.376 l 86.068,21.405 c 1.493,0.372 3.005,-0.538 3.376,-2.031 L 2.032,3.376 C 2.403,1.883 1.494,0.372 0,0"
             style="fill:#cdb955;fill-opacity:1;fill-rule:nonzero;stroke:none"
             id="path488" />
        </g>
        <g
           id="g490"
           transform="translate(165.194,399.569)">
          <path
             d="m 0,0 -2.399,-6.896 -76.364,-18.992 -6.781,4.613 -14.064,56.55 85.544,21.275 z"
             style="fill:#fbe063;fill-opacity:1;fill-rule:nonzero;stroke:none"
             id="path492" />
        </g>
        <g
           id="g494"
           transform="translate(121.3263,388.6589)">
          <path
             d="M 0,0 -41.677,-10.365 -55.741,46.186 -14.064,56.55 Z"
             style="fill:#ffffff;fill-opacity:1;fill-rule:nonzero;stroke:none"
             id="path496" />
        </g>
        <g
           id="g498"
           transform="translate(105.1779,438.3923)">
          <path
             d="m 0,0 -34.243,-8.516 -0.491,1.977 34.242,8.517 z"
             style="fill:#b1b1b1;fill-opacity:1;fill-rule:nonzero;stroke:none"
             id="path500" />
        </g>
        <g
           id="g502"
           transform="translate(106.7516,432.0651)">
          <path
             d="m 0,0 -34.243,-8.517 -0.491,1.978 34.242,8.516 z"
             style="fill:#b1b1b1;fill-opacity:1;fill-rule:nonzero;stroke:none"
             id="path504" />
        </g>
        <g
           id="g506"
           transform="translate(108.3253,425.7375)">
          <path
             d="m 0,0 -34.243,-8.516 -0.491,1.977 34.242,8.517 z"
             style="fill:#b1b1b1;fill-opacity:1;fill-rule:nonzero;stroke:none"
             id="path508" />
        </g>
        <g
           id="g510"
           transform="translate(109.8991,419.4103)">
          <path
             d="m 0,0 -34.243,-8.516 -0.492,1.977 34.243,8.516 z"
             style="fill:#b1b1b1;fill-opacity:1;fill-rule:nonzero;stroke:none"
             id="path512" />
        </g>
        <g
           id="g514"
           transform="translate(111.4728,413.0832)">
          <path
             d="m 0,0 -34.243,-8.517 -0.492,1.978 34.243,8.516 z"
             style="fill:#b1b1b1;fill-opacity:1;fill-rule:nonzero;stroke:none"
             id="path516" />
        </g>
        <g
           id="g518"
           transform="translate(113.046,406.7556)">
          <path
             d="m 0,0 -34.243,-8.516 -0.491,1.977 34.242,8.517 z"
             style="fill:#b1b1b1;fill-opacity:1;fill-rule:nonzero;stroke:none"
             id="path520" />
        </g>
        <g
           id="g522"
           transform="translate(114.6198,400.4284)">
          <path
             d="m 0,0 -34.243,-8.516 -0.491,1.977 34.242,8.516 z"
             style="fill:#b1b1b1;fill-opacity:1;fill-rule:nonzero;stroke:none"
             id="path524" />
        </g>
        <g
           id="g526"
           transform="translate(116.1935,394.1008)">
          <path
             d="m 0,0 -34.243,-8.516 -0.491,1.977 34.242,8.517 z"
             style="fill:#b1b1b1;fill-opacity:1;fill-rule:nonzero;stroke:none"
             id="path528" />
        </g>
        <g
           id="g530"
           transform="translate(123.5172,389.2038)">
          <path
             d="M 0,0 41.677,10.365 27.612,66.916 -14.064,56.55 Z"
             style="fill:#ffffff;fill-opacity:1;fill-rule:nonzero;stroke:none"
             id="path532" />
        </g>
        <g
           id="g534"
           transform="translate(114.4874,440.7077)">
          <path
             d="M 0,0 34.243,8.516 33.751,10.493 -0.492,1.977 Z"
             style="fill:#b1b1b1;fill-opacity:1;fill-rule:nonzero;stroke:none"
             id="path536" />
        </g>
        <g
           id="g538"
           transform="translate(116.0612,434.3801)">
          <path
             d="M 0,0 34.243,8.516 33.751,10.494 -0.492,1.978 Z"
             style="fill:#b1b1b1;fill-opacity:1;fill-rule:nonzero;stroke:none"
             id="path540" />
        </g>
        <g
           id="g542"
           transform="translate(117.6349,428.0529)">
          <path
             d="M 0,0 34.243,8.516 33.751,10.494 -0.492,1.977 Z"
             style="fill:#b1b1b1;fill-opacity:1;fill-rule:nonzero;stroke:none"
             id="path544" />
        </g>
        <g
           id="g546"
           transform="translate(119.2081,421.7253)">
          <path
             d="M 0,0 34.243,8.517 33.751,10.494 -0.492,1.978 Z"
             style="fill:#b1b1b1;fill-opacity:1;fill-rule:nonzero;stroke:none"
             id="path548" />
        </g>
        <g
           id="g550"
           transform="translate(120.7819,415.3981)">
          <path
             d="M 0,0 34.243,8.516 33.751,10.494 -0.492,1.978 Z"
             style="fill:#b1b1b1;fill-opacity:1;fill-rule:nonzero;stroke:none"
             id="path552" />
        </g>
        <g
           id="g554"
           transform="translate(122.3556,409.071)">
          <path
             d="M 0,0 34.243,8.516 33.751,10.494 -0.492,1.977 Z"
             style="fill:#b1b1b1;fill-opacity:1;fill-rule:nonzero;stroke:none"
             id="path556" />
        </g>
        <g
           id="g558"
           transform="translate(123.9293,402.7433)">
          <path
             d="M 0,0 34.243,8.517 33.751,10.494 -0.492,1.978 Z"
             style="fill:#b1b1b1;fill-opacity:1;fill-rule:nonzero;stroke:none"
             id="path560" />
        </g>
        <g
           id="g562"
           transform="translate(125.5026,396.4162)">
          <path
             d="M 0,0 34.243,8.516 33.751,10.494 -0.492,1.978 Z"
             style="fill:#b1b1b1;fill-opacity:1;fill-rule:nonzero;stroke:none"
             id="path564" />
        </g>
        <g
           id="g566"
           transform="translate(128.1124,381.1291)">
          <path
             d="M 0,0 -6.594,-1.64 C -8.039,-2 -9.501,-1.12 -9.861,0.325 l -0.602,2.422 11.826,2.94 0.602,-2.42 C 2.325,1.822 1.445,0.359 0,0"
             style="fill:#fbe063;fill-opacity:1;fill-rule:nonzero;stroke:none"
             id="path568" />
        </g>
        <g
           id="g570"
           transform="translate(274.4664,462.4426)">
          <path
             d="m 0,0 c -3.421,3.251 -7.742,5.47 -12.19,6.953 -0.031,0.009 -0.099,0.028 -0.201,0.056 -4.029,1.079 -8.278,1.079 -12.307,0 -0.102,-0.028 -0.171,-0.047 -0.2,-0.056 -4.449,-1.483 -8.77,-3.702 -12.19,-6.953 -10.18,-9.679 -8.527,-27.247 1.387,-36.517 2.782,-2.6 4.003,-5.957 4.854,-9.657 0.257,-1.115 1.732,-12.741 1.218,-12.741 h 11.084 11.085 c -0.514,0 0.961,11.626 1.218,12.741 0.851,3.7 2.073,7.057 4.853,9.657 C 8.525,-27.247 10.179,-9.679 0,0"
             style="fill:#fbe063;fill-opacity:1;fill-rule:nonzero;stroke:none"
             id="path572" />
        </g>
        <g
           id="g574">
          <g
             id="g576" />
          <g
             id="g588">
            <g
               clip-path="url(#clipPath580)"
               opacity="0.520004"
               id="g586">
              <g
                 transform="translate(251.9352,416.2682)"
                 id="g584">
                <path
                   d="m 0,0 c -0.851,3.701 -2.072,7.057 -4.853,9.658 -9.914,9.269 -11.568,26.837 -1.388,36.516 3.42,3.252 7.741,5.471 12.19,6.953 0.03,0.01 0.099,0.029 0.199,0.056 0.661,0.177 1.328,0.314 1.997,0.433 -3.42,0.607 -6.942,0.47 -10.312,-0.433 -0.102,-0.027 -0.17,-0.046 -0.2,-0.056 -4.449,-1.482 -8.77,-3.701 -12.19,-6.953 -10.18,-9.679 -8.526,-27.247 1.388,-36.516 2.781,-2.601 4.002,-5.957 4.853,-9.658 0.257,-1.115 1.732,-12.74 1.218,-12.74 H 1.218 C 1.732,-12.74 0.257,-1.115 0,0"
                   style="fill:#fff6e7;fill-opacity:1;fill-rule:nonzero;stroke:none"
                   id="path582" />
              </g>
            </g>
          </g>
        </g>
        <g
           id="g590"
           transform="translate(255.9215,403.528)">
          <path
             d="m 0,0 v 27.112 l 4.772,2.751 c 1.578,0.908 1.263,3.271 -0.497,3.736 l -8.683,2.291 c -1.482,0.391 -1.65,2.425 -0.253,3.054 L 0,41.041 v 9.203"
             style="fill:none;stroke:#fefefe;stroke-width:2.239;stroke-linecap:round;stroke-linejoin:miter;stroke-miterlimit:10;stroke-dasharray:none;stroke-opacity:1"
             id="path592" />
        </g>
        <g
           id="g594"
           transform="translate(269.2125,399.7971)">
          <path
             d="m 0,0 c 0,-0.824 -0.668,-1.492 -1.492,-1.492 h -24.376 c -0.824,0 -1.492,0.668 -1.492,1.492 0,0.824 0.668,1.493 1.492,1.493 H -1.492 C -0.668,1.493 0,0.824 0,0"
             style="fill:#1b1c21;fill-opacity:1;fill-rule:nonzero;stroke:none"
             id="path596" />
        </g>
        <g
           id="g598"
           transform="translate(269.2125,395.32)">
          <path
             d="m 0,0 c 0,-0.824 -0.668,-1.492 -1.492,-1.492 h -24.376 c -0.824,0 -1.492,0.668 -1.492,1.492 0,0.824 0.668,1.492 1.492,1.492 H -1.492 C -0.668,1.492 0,0.824 0,0"
             style="fill:#1b1c21;fill-opacity:1;fill-rule:nonzero;stroke:none"
             id="path600" />
        </g>
        <g
           id="g602"
           transform="translate(269.2125,390.843)">
          <path
             d="m 0,0 c 0,-0.824 -0.668,-1.493 -1.492,-1.493 h -24.376 c -0.824,0 -1.492,0.669 -1.492,1.493 0,0.824 0.668,1.492 1.492,1.492 H -1.492 C -0.668,1.492 0,0.824 0,0"
             style="fill:#1b1c21;fill-opacity:1;fill-rule:nonzero;stroke:none"
             id="path604" />
        </g>
        <g
           id="g606"
           transform="translate(255.5329,378.904)">
          <path
             d="M 0,0 C 4.808,0 8.705,3.897 8.705,8.706 H -8.706 C -8.706,3.897 -4.809,0 0,0"
             style="fill:#1b1c21;fill-opacity:1;fill-rule:nonzero;stroke:none"
             id="path608" />
        </g>
        <g
           id="g610"
           transform="translate(334.6686,364.5637)">
          <path
             d="m 0,0 c -6.585,0 -11.923,5.338 -11.923,11.922 0,6.585 5.338,11.922 11.923,11.922 6.584,0 11.922,-5.337 11.922,-11.922 C 11.922,5.338 6.584,0 0,0 m 23.997,8.617 v 7.008 h -3.098 c -0.586,3.33 -1.946,6.383 -3.89,8.985 l 2.458,2.457 -4.956,4.956 -2.549,-2.549 C 9.353,31.256 6.32,32.45 3.053,32.921 v 3.661 h -7.008 v -3.798 c -3.133,-0.591 -6.014,-1.873 -8.498,-3.677 l -2.481,2.481 -4.956,-4.956 2.514,-2.512 c -1.837,-2.611 -3.086,-5.653 -3.593,-8.946 h -3.479 V 8.166 h 3.555 c 0.575,-3.212 1.87,-6.166 3.713,-8.704 l -2.738,-2.738 4.955,-4.956 2.773,2.773 c 2.543,-1.787 5.493,-3.018 8.685,-3.549 v -3.783 h 7.009 v 3.783 c 3.182,0.529 6.123,1.753 8.66,3.529 l 2.317,-2.318 4.956,4.956 -2.277,2.278 c 1.94,2.661 3.269,5.784 3.8,9.18 z"
             style="fill:#6f91f6;fill-opacity:1;fill-rule:nonzero;stroke:none"
             id="path612" />
        </g>
        <g
           id="g614"
           transform="translate(372.7692,341.6276)">
          <path
             d="m 0,0 c -3.799,0 -6.878,3.079 -6.878,6.878 0,3.798 3.079,6.877 6.878,6.877 3.799,0 6.878,-3.079 6.878,-6.877 C 6.878,3.079 3.799,0 0,0 m 13.844,4.971 v 4.043 h -1.787 c -0.338,1.921 -1.123,3.682 -2.244,5.183 l 1.417,1.418 -2.859,2.859 -1.47,-1.471 C 5.396,18.031 3.646,18.72 1.762,18.992 v 2.112 h -4.043 v -2.191 c -1.808,-0.341 -3.47,-1.081 -4.903,-2.121 l -1.43,1.431 -2.86,-2.859 1.451,-1.45 c -1.06,-1.506 -1.781,-3.261 -2.074,-5.16 h -2.007 V 4.711 h 2.052 c 0.331,-1.853 1.077,-3.557 2.142,-5.021 l -1.58,-1.58 2.858,-2.859 1.6,1.6 c 1.467,-1.031 3.169,-1.741 5.011,-2.047 v -2.183 h 4.042 v 2.183 c 1.836,0.305 3.533,1.01 4.997,2.035 l 1.336,-1.337 2.86,2.859 -1.315,1.314 c 1.12,1.535 1.886,3.337 2.193,5.296 z"
             style="fill:#92b3fc;fill-opacity:1;fill-rule:nonzero;stroke:none"
             id="path616" />
        </g>
        <g
           id="g618"
           transform="translate(401.0319,381.2653)">
          <path
             d="m 0,0 c -13.522,0 -24.483,10.962 -24.483,24.483 0,13.523 10.961,24.485 24.483,24.485 13.522,0 24.483,-10.962 24.483,-24.485 C 24.483,10.962 13.522,0 0,0 m 49.281,17.695 v 14.393 h -6.36 c -1.204,6.837 -3.998,13.108 -7.99,18.451 l 5.047,5.047 -10.177,10.177 -5.235,-5.234 C 19.208,64.188 12.98,66.64 6.271,67.608 v 7.518 H -8.122 v -7.8 c -6.434,-1.213 -12.35,-3.847 -17.451,-7.551 l -5.094,5.095 -10.178,-10.177 5.161,-5.161 c -3.77,-5.361 -6.337,-11.609 -7.378,-18.369 h -7.145 V 16.77 h 7.304 c 1.178,-6.596 3.836,-12.663 7.623,-17.874 l -5.624,-5.624 10.176,-10.177 5.695,5.694 c 5.221,-3.669 11.28,-6.197 17.837,-7.288 v -7.769 H 7.196 v 7.769 c 6.533,1.087 12.575,3.6 17.784,7.248 l 4.761,-4.761 10.177,10.178 -4.678,4.677 c 3.985,5.465 6.713,11.879 7.805,18.852 z"
             style="fill:#4d70e8;fill-opacity:1;fill-rule:nonzero;stroke:none"
             id="path620" />
        </g>
        <g
           id="g622"
           transform="translate(414.9352,405.6945)">
          <path
             d="m 0,0 c 0,-7.935 -6.432,-14.367 -14.366,-14.367 -7.935,0 -14.367,6.432 -14.367,14.367 0,7.934 6.432,14.367 14.367,14.367 C -6.432,14.367 0,7.934 0,0"
             style="fill:#6f91f6;fill-opacity:1;fill-rule:nonzero;stroke:none"
             id="path624" />
        </g>
        <g
           id="g626"
           transform="translate(120.715,332.1994)">
          <path
             d="m 0,0 c -30.87,-1.873 -54.866,-20.372 -53.595,-41.32 1.271,-20.948 27.326,-36.412 58.197,-34.539 l 0.068,0.004 c 3.038,0.187 5.163,3.122 4.413,6.071 -0.366,1.435 -0.571,2.938 -0.596,4.49 -0.156,9.985 7.567,18.565 17.513,19.463 7.218,0.653 13.812,-2.741 17.619,-8.262 1.878,-2.725 5.87,-2.918 7.901,-0.304 4.641,5.973 7.106,12.774 6.677,19.858 C 56.926,-13.591 30.871,1.873 0,0"
             style="fill:#4d70e8;fill-opacity:1;fill-rule:nonzero;stroke:none"
             id="path628" />
        </g>
        <g
           id="g630"
           transform="translate(120.5094,335.5895)">
          <path
             d="m 0,0 c -30.87,-1.873 -54.866,-20.372 -53.595,-41.32 1.271,-20.948 27.326,-36.412 58.197,-34.539 l 0.068,0.004 c 3.038,0.187 5.163,3.122 4.413,6.071 -0.366,1.435 -0.571,2.938 -0.596,4.49 -0.156,9.985 7.567,18.565 17.513,19.463 7.218,0.653 13.812,-2.741 17.619,-8.263 1.878,-2.724 5.87,-2.917 7.901,-0.303 4.64,5.973 7.106,12.774 6.677,19.858 C 56.926,-13.591 30.871,1.872 0,0"
             style="fill:#4d70e8;fill-opacity:1;fill-rule:nonzero;stroke:none"
             id="path632" />
        </g>
        <g
           id="g634"
           transform="translate(109.6066,276.2048)">
          <path
             d="m 0,0 c 0.226,-3.722 -2.608,-6.921 -6.329,-7.147 -3.722,-0.226 -6.921,2.608 -7.147,6.33 -0.226,3.721 2.608,6.921 6.33,7.146 C -3.425,6.555 -0.226,3.721 0,0"
             style="fill:#fbe063;fill-opacity:1;fill-rule:nonzero;stroke:none"
             id="path636" />
        </g>
        <g
           id="g638"
           transform="translate(91.2169,288.9807)">
          <path
             d="m 0,0 c 0.226,-3.721 -2.608,-6.921 -6.329,-7.146 -3.721,-0.227 -6.921,2.607 -7.147,6.329 -0.226,3.721 2.608,6.921 6.33,7.147 C -3.425,6.555 -0.226,3.721 0,0"
             style="fill:#fbe063;fill-opacity:1;fill-rule:nonzero;stroke:none"
             id="path640" />
        </g>
        <g
           id="g642"
           transform="translate(96.6242,311.3268)">
          <path
             d="m 0,0 c 0.226,-3.721 -2.608,-6.921 -6.329,-7.146 -3.721,-0.226 -6.921,2.607 -7.147,6.329 -0.226,3.721 2.608,6.921 6.33,7.147 C -3.425,6.555 -0.226,3.722 0,0"
             style="fill:#fbe063;fill-opacity:1;fill-rule:nonzero;stroke:none"
             id="path644" />
        </g>
        <g
           id="g646"
           transform="translate(119.4147,323.404)">
          <path
             d="m 0,0 c 0.226,-3.721 -2.608,-6.921 -6.329,-7.146 -3.721,-0.227 -6.921,2.607 -7.147,6.329 -0.226,3.721 2.608,6.921 6.33,7.146 C -3.425,6.555 -0.226,3.721 0,0"
             style="fill:#fbe063;fill-opacity:1;fill-rule:nonzero;stroke:none"
             id="path648" />
        </g>
        <g
           id="g650"
           transform="translate(145.0856,323.0739)">
          <path
             d="m 0,0 c 0.226,-3.721 -2.608,-6.921 -6.329,-7.146 -3.722,-0.227 -6.921,2.607 -7.147,6.329 -0.226,3.721 2.608,6.921 6.33,7.146 C -3.425,6.555 -0.226,3.721 0,0"
             style="fill:#fbe063;fill-opacity:1;fill-rule:nonzero;stroke:none"
             id="path652" />
        </g>
        <g
           id="g654"
           transform="translate(166.7531,310.8625)">
          <path
             d="m 0,0 c 0.226,-3.721 -2.608,-6.921 -6.329,-7.146 -3.721,-0.226 -6.921,2.607 -7.147,6.329 -0.226,3.721 2.608,6.921 6.33,7.147 C -3.425,6.555 -0.226,3.721 0,0"
             style="fill:#fbe063;fill-opacity:1;fill-rule:nonzero;stroke:none"
             id="path656" />
        </g>
        <g
           id="g658"
           transform="translate(143.9337,314.091)">
          <path
             d="M 0,0 V 0 L 0.167,-0.068 Z M 6.621,17.5 0.266,4.204 C -0.572,4.245 -1.382,3.769 -1.717,2.948 L -1.735,2.903 C -2.159,1.862 -1.659,0.676 -0.618,0.252 l 0.596,-0.243 c -0.117,0.039 -0.723,0.11 -2.001,-1.751 0,-0.001 -10e-4,-0.002 -10e-4,-0.002 -0.078,-0.112 -0.158,-0.233 -0.24,-0.36 -0.008,-0.013 -0.016,-0.025 -0.025,-0.039 -0.076,-0.118 -0.155,-0.245 -0.235,-0.377 -0.017,-0.026 -0.033,-0.053 -0.049,-0.08 -0.076,-0.125 -0.154,-0.256 -0.233,-0.393 -0.023,-0.04 -0.047,-0.081 -0.07,-0.123 -0.075,-0.131 -0.152,-0.267 -0.229,-0.408 -0.032,-0.057 -0.063,-0.114 -0.095,-0.172 -0.074,-0.137 -0.15,-0.279 -0.227,-0.426 -0.038,-0.072 -0.076,-0.147 -0.115,-0.221 -0.074,-0.143 -0.149,-0.29 -0.226,-0.442 -0.045,-0.09 -0.091,-0.184 -0.137,-0.277 -0.074,-0.149 -0.148,-0.3 -0.224,-0.457 -0.052,-0.108 -0.105,-0.221 -0.158,-0.333 -0.075,-0.157 -0.15,-0.315 -0.226,-0.48 -0.057,-0.125 -0.116,-0.255 -0.175,-0.384 -0.076,-0.165 -0.151,-0.33 -0.228,-0.503 -0.065,-0.146 -0.132,-0.301 -0.199,-0.453 -0.074,-0.169 -0.148,-0.336 -0.224,-0.513 -0.073,-0.169 -0.148,-0.348 -0.223,-0.524 -0.074,-0.176 -0.148,-0.35 -0.224,-0.533 -0.08,-0.191 -0.162,-0.393 -0.244,-0.593 -0.074,-0.181 -0.147,-0.358 -0.223,-0.546 -0.088,-0.22 -0.18,-0.451 -0.27,-0.68 -0.074,-0.185 -0.145,-0.365 -0.221,-0.556 -0.1,-0.258 -0.204,-0.531 -0.308,-0.8 -0.067,-0.175 -0.133,-0.344 -0.201,-0.523 -0.123,-0.324 -0.249,-0.664 -0.376,-1.004 -0.053,-0.143 -0.105,-0.279 -0.159,-0.425 -0.182,-0.494 -0.368,-1.004 -0.558,-1.532 -0.508,-1.416 -1.104,-3.085 -1.759,-4.935 -0.077,-0.215 -0.151,-0.424 -0.229,-0.644 -0.099,-0.28 -0.203,-0.574 -0.305,-0.862 -0.085,-0.24 -0.168,-0.475 -0.255,-0.72 -0.134,-0.38 -0.272,-0.772 -0.41,-1.164 -0.062,-0.175 -0.123,-0.346 -0.185,-0.525 -0.137,-0.387 -0.277,-0.786 -0.417,-1.185 -0.072,-0.203 -0.142,-0.401 -0.214,-0.607 -0.132,-0.375 -0.266,-0.758 -0.401,-1.142 -0.083,-0.236 -0.165,-0.469 -0.249,-0.709 -0.155,-0.442 -0.313,-0.894 -0.472,-1.347 -0.059,-0.17 -0.118,-0.337 -0.178,-0.509 -0.162,-0.461 -0.325,-0.93 -0.49,-1.401 -0.07,-0.202 -0.139,-0.4 -0.21,-0.602 -0.153,-0.439 -0.308,-0.883 -0.463,-1.329 -0.079,-0.227 -0.157,-0.451 -0.237,-0.679 -0.164,-0.472 -0.33,-0.95 -0.497,-1.429 -0.072,-0.206 -0.143,-0.41 -0.215,-0.617 -0.163,-0.471 -0.328,-0.947 -0.494,-1.424 -0.082,-0.238 -0.164,-0.475 -0.247,-0.713 -0.148,-0.428 -0.297,-0.858 -0.447,-1.289 -0.105,-0.306 -0.211,-0.611 -0.317,-0.918 -0.128,-0.37 -0.256,-0.743 -0.385,-1.115 -0.122,-0.354 -0.245,-0.707 -0.367,-1.062 -0.137,-0.398 -0.274,-0.797 -0.412,-1.196 -0.072,-0.209 -0.144,-0.417 -0.216,-0.626 v 0 c -1.121,-3.257 -2.25,-6.562 -3.363,-9.836 0.981,0.024 1.966,0.065 2.957,0.125 l 0.069,0.005 c 3.038,0.187 5.163,3.121 4.412,6.071 -0.365,1.435 -0.571,2.937 -0.595,4.49 -0.137,8.738 5.762,16.4 13.903,18.779 0.9,1.948 1.704,3.696 2.377,5.171 7.162,15.684 5.382,17.09 5.157,17.199 l 0.596,-0.243 c 1.041,-0.424 2.228,0.076 2.651,1.117 l 0.019,0.044 c 0.396,0.974 -0.023,2.067 -0.93,2.552 l 4.762,13.69 c -2.2,1.114 -4.53,2.113 -6.977,2.986"
             style="fill:#1b1c21;fill-opacity:1;fill-rule:nonzero;stroke:none"
             id="path660" />
        </g>
        <g
           id="g662">
          <g
             id="g664" />
          <g
             id="g676">
            <g
               clip-path="url(#clipPath668)"
               opacity="0.419998"
               id="g674">
              <g
                 transform="translate(95.4557,312.3596)"
                 id="g672">
                <path
                   d="m 0,0 c 0.094,-1.556 -1.091,-2.895 -2.647,-2.989 -1.557,-0.094 -2.895,1.091 -2.989,2.647 -0.094,1.556 1.091,2.895 2.647,2.989 C -1.433,2.742 -0.094,1.557 0,0"
                   style="fill:#ffffff;fill-opacity:1;fill-rule:nonzero;stroke:none"
                   id="path670" />
              </g>
            </g>
          </g>
        </g>
        <g
           id="g678">
          <g
             id="g680" />
          <g
             id="g692">
            <g
               clip-path="url(#clipPath684)"
               opacity="0.419998"
               id="g690">
              <g
                 transform="translate(118.2609,324.1955)"
                 id="g688">
                <path
                   d="m 0,0 c 0.094,-1.556 -1.091,-2.895 -2.647,-2.989 -1.557,-0.094 -2.895,1.091 -2.989,2.647 -0.094,1.556 1.091,2.895 2.647,2.989 C -1.433,2.742 -0.095,1.556 0,0"
                   style="fill:#ffffff;fill-opacity:1;fill-rule:nonzero;stroke:none"
                   id="path686" />
              </g>
            </g>
          </g>
        </g>
        <g
           id="g694">
          <g
             id="g696" />
          <g
             id="g708">
            <g
               clip-path="url(#clipPath700)"
               opacity="0.419998"
               id="g706">
              <g
                 transform="translate(142.4079,324.799)"
                 id="g704">
                <path
                   d="m 0,0 c 0.094,-1.557 -1.091,-2.895 -2.647,-2.989 -1.557,-0.094 -2.895,1.091 -2.989,2.647 -0.094,1.556 1.091,2.895 2.647,2.989 C -1.433,2.741 -0.094,1.556 0,0"
                   style="fill:#ffffff;fill-opacity:1;fill-rule:nonzero;stroke:none"
                   id="path702" />
              </g>
            </g>
          </g>
        </g>
        <g
           id="g710">
          <g
             id="g712" />
          <g
             id="g724">
            <g
               clip-path="url(#clipPath716)"
               opacity="0.419998"
               id="g722">
              <g
                 transform="translate(88.3707,290.9728)"
                 id="g720">
                <path
                   d="m 0,0 c 0.095,-1.556 -1.09,-2.895 -2.647,-2.989 -1.556,-0.094 -2.895,1.091 -2.989,2.647 -0.094,1.556 1.091,2.895 2.647,2.989 C -1.433,2.742 -0.094,1.556 0,0"
                   style="fill:#ffffff;fill-opacity:1;fill-rule:nonzero;stroke:none"
                   id="path718" />
              </g>
            </g>
          </g>
        </g>
        <g
           id="g726">
          <g
             id="g728" />
          <g
             id="g740">
            <g
               clip-path="url(#clipPath732)"
               opacity="0.419998"
               id="g738">
              <g
                 transform="translate(108.382,278.1638)"
                 id="g736">
                <path
                   d="m 0,0 c 0.094,-1.557 -1.091,-2.895 -2.647,-2.989 -1.557,-0.094 -2.895,1.091 -2.989,2.647 -0.094,1.556 1.091,2.895 2.647,2.989 C -1.433,2.741 -0.095,1.556 0,0"
                   style="fill:#ffffff;fill-opacity:1;fill-rule:nonzero;stroke:none"
                   id="path734" />
              </g>
            </g>
          </g>
        </g>
        <g
           id="g742"
           transform="translate(175.236,335.6066)">
          <path
             d="M 0,0 C 0,0 9.21,5.034 9.8,12.813 9.763,17.412 7.766,21.185 7.766,21.185 L 6.505,16.446 c 0,0 -0.693,7.443 -6.007,11.039 -5.315,3.597 -4.008,2.587 -4.008,2.587 0,0 4.463,-5.923 -0.49,-15.745 C -8.955,4.505 -2.703,1.101 -2.703,1.101 Z"
             style="fill:#fbe063;fill-opacity:1;fill-rule:nonzero;stroke:none"
             id="path744" />
        </g>
        <g
           id="g746"
           transform="translate(174.6666,338.7966)">
          <path
             d="M 0,0 C 0,0 -1.666,8.542 2.142,13.132 -2.808,6.858 -3.83,1.817 -2.587,-2.256 Z"
             style="fill:#cdb955;fill-opacity:1;fill-rule:nonzero;stroke:none"
             id="path748" />
        </g>
        <g
           id="g750"
           transform="translate(170.2179,337.1081)">
          <path
             d="M 0,0 C 0.811,1.642 2.752,2.379 4.449,1.688 L 4.479,1.676 4.51,1.664 C 6.206,0.973 7.081,-0.911 6.514,-2.652 l -6.056,-18.605 -4.561,1.856 -4.56,1.857 z"
             style="fill:#d3d7e3;fill-opacity:1;fill-rule:nonzero;stroke:none"
             id="path752" />
        </g>
        <g
           id="g754"
           transform="translate(160.8502,315.4064)">
          <path
             d="m 0,0 7.715,-3.141 c 1.04,-0.423 2.227,0.077 2.651,1.117 l 0.018,0.045 c 0.424,1.04 -0.076,2.227 -1.117,2.65 L 1.552,3.813 C 0.512,4.236 -0.675,3.736 -1.099,2.696 L -1.117,2.651 C -1.541,1.61 -1.041,0.424 0,0"
             style="fill:#cdcdcd;fill-opacity:1;fill-rule:nonzero;stroke:none"
             id="path756" />
        </g>
        <g
           id="g758"
           transform="translate(161.4689,315.1545)">
          <path
             d="m 0,0 3.239,-1.318 3.239,-1.319 c 0,0 2.457,-0.581 -5.135,-17.208 -5.643,-12.358 -20.158,-43.353 -28.522,-59.912 -0.783,-1.55 -3.128,-0.595 -2.606,1.06 5.582,17.693 16.845,50.011 21.439,62.797 C -2.165,1.301 0,0 0,0"
             style="fill:#1b1c21;fill-opacity:1;fill-rule:nonzero;stroke:none"
             id="path760" />
        </g>
        <g
           id="g762"
           transform="translate(144.1945,255.6413)">
          <path
             d="m 0,0 c -3.615,-7.538 -7.105,-14.701 -9.905,-20.244 -0.783,-1.55 -3.128,-0.595 -2.606,1.06 1.869,5.923 4.375,13.487 7.053,21.406 z"
             style="fill:#d3d7e3;fill-opacity:1;fill-rule:nonzero;stroke:none"
             id="path764" />
        </g>
        <g
           id="g766">
          <g
             id="g768" />
          <g
             id="g780">
            <g
               clip-path="url(#clipPath772)"
               opacity="0.75"
               id="g778">
              <g
                 transform="translate(143.0519,270.5041)"
                 id="g776">
                <path
                   d="M 0,0 V 0 C 11.899,14.729 16.375,42.787 16.394,42.909 15.073,40.985 13.035,36.997 10.071,28.75 7.826,22.502 3.989,11.59 0,0"
                   style="fill:#ffffff;fill-opacity:1;fill-rule:nonzero;stroke:none"
                   id="path774" />
              </g>
            </g>
          </g>
        </g>
        <g
           id="g782"
           transform="translate(373.444,305.0456)">
          <path
             d="M 0,0 2.108,-4.272 6.822,-4.957 3.411,-8.282 4.217,-12.977 0,-10.76 l -4.217,-2.217 0.806,4.695 -3.411,3.325 4.714,0.685 z"
             style="fill:#6f91f6;fill-opacity:1;fill-rule:nonzero;stroke:none"
             id="path784" />
        </g>
        <g
           id="g786"
           transform="translate(434.1412,311.0139)">
          <path
             d="m 0,0 2.944,-5.965 6.582,-0.957 -4.762,-4.643 1.124,-6.556 -5.888,3.096 -5.888,-3.096 1.125,6.556 -4.763,4.643 6.583,0.957 z"
             style="fill:#4d70e8;fill-opacity:1;fill-rule:nonzero;stroke:none"
             id="path788" />
        </g>
        <g
           id="g790"
           transform="translate(415.7203,221.6218)">
          <path
             d="M 0,0 1.643,-3.33 5.317,-3.863 2.658,-6.455 3.286,-10.115 0,-8.387 l -3.287,-1.728 0.628,3.66 -2.658,2.592 3.673,0.533 z"
             style="fill:#6f91f6;fill-opacity:1;fill-rule:nonzero;stroke:none"
             id="path792" />
        </g>
        <g
           id="g794"
           transform="translate(357.0953,244.1765)">
          <path
             d="m 0,0 2.943,-5.965 6.583,-0.957 -4.763,-4.642 1.125,-6.557 -5.888,3.096 -5.889,-3.096 1.125,6.557 -4.763,4.642 6.583,0.957 z"
             style="fill:#4d70e8;fill-opacity:1;fill-rule:nonzero;stroke:none"
             id="path796" />
        </g>
        <g
           id="g798"
           transform="translate(369.6842,269.381)">
          <path
             d="M 0,0 C 4.872,17.463 22.979,27.67 40.443,22.797 57.907,17.925 68.114,-0.183 63.241,-17.646 58.368,-35.11 40.261,-45.317 22.797,-40.444 5.334,-35.571 -4.873,-17.464 0,0"
             style="fill:#fbe063;fill-opacity:1;fill-rule:nonzero;stroke:none"
             id="path800" />
        </g>
        <g
           id="g802"
           transform="translate(392.4811,228.9372)">
          <path
             d="M 0,0 C 11.597,-3.236 23.473,0.183 31.573,7.955 26.087,6.485 20.149,6.413 14.282,8.05 -3.182,12.923 -13.389,31.03 -8.516,48.494 -6.879,54.361 -3.743,59.404 0.355,63.336 -10.488,60.43 -19.562,52.04 -22.797,40.444 -27.67,22.98 -17.463,4.873 0,0"
             style="fill:#cdb955;fill-opacity:1;fill-rule:nonzero;stroke:none"
             id="path804" />
        </g>
        <g
           id="g806">
          <g
             id="g808" />
          <g
             id="g820">
            <g
               clip-path="url(#clipPath812)"
               opacity="0.520004"
               id="g818">
              <g
                 transform="translate(410.1276,292.1784)"
                 id="g816">
                <path
                   d="m 0,0 c -1.636,0.457 -3.276,0.78 -4.912,0.979 -0.857,-3.07 -1.323,-6.301 -1.323,-9.644 0,-17.088 11.963,-31.374 27.969,-34.962 0.404,1.032 0.759,2.093 1.064,3.183 C 27.671,-22.98 17.464,-4.873 0,0"
                   style="fill:#fff6e7;fill-opacity:1;fill-rule:nonzero;stroke:none"
                   id="path814" />
              </g>
            </g>
          </g>
        </g>
        <g
           id="g822"
           transform="translate(368.5885,263.2585)">
          <path
             d="m 0,0 c -12.736,4.962 -20.657,9.451 -19.992,11.836 1.107,3.968 25.555,0.614 54.606,-7.492 29.051,-8.106 51.703,-17.894 50.596,-21.862 -0.663,-2.378 -9.707,-2.126 -23.101,0.202"
             style="fill:none;stroke:#6f91f6;stroke-width:2;stroke-linecap:butt;stroke-linejoin:miter;stroke-miterlimit:10;stroke-dasharray:none;stroke-opacity:1"
             id="path824" />
        </g>
      </g>
    </g>
  </g>
</svg>
